<mxfile host="65bd71144e">
    <diagram id="uRFTJZ9asfGi-mWU3NWK" name="Page-1">
        <mxGraphModel dx="1708" dy="1191" grid="1" gridSize="10" guides="1" tooltips="1" connect="1" arrows="1" fold="1" page="1" pageScale="1" pageWidth="1200" pageHeight="1600" background="none" math="0" shadow="0">
            <root>
                <mxCell id="0"/>
                <mxCell id="1" parent="0"/>
                <mxCell id="12" value="" style="edgeStyle=none;html=1;" edge="1" parent="1" source="8" target="10">
                    <mxGeometry relative="1" as="geometry"/>
                </mxCell>
                <mxCell id="8" value="&lt;h1&gt;START&lt;/h1&gt;" style="strokeWidth=2;html=1;shape=mxgraph.flowchart.start_1;whiteSpace=wrap;" vertex="1" parent="1">
                    <mxGeometry x="240" y="60" width="100" height="60" as="geometry"/>
                </mxCell>
                <mxCell id="29" style="edgeStyle=none;html=1;exitX=1;exitY=0.5;exitDx=0;exitDy=0;exitPerimeter=0;entryX=0;entryY=0.5;entryDx=0;entryDy=0;fontSize=14;" edge="1" parent="1" source="9" target="28">
                    <mxGeometry relative="1" as="geometry">
                        <Array as="points">
                            <mxPoint x="450" y="365"/>
                            <mxPoint x="450" y="150"/>
                        </Array>
                    </mxGeometry>
                </mxCell>
                <mxCell id="31" style="edgeStyle=none;html=1;exitX=0.5;exitY=1;exitDx=0;exitDy=0;exitPerimeter=0;entryX=0.5;entryY=0;entryDx=0;entryDy=0;fontSize=14;" edge="1" parent="1" source="9" target="30">
                    <mxGeometry relative="1" as="geometry"/>
                </mxCell>
                <mxCell id="9" value="RFID interrupt?" style="strokeWidth=2;html=1;shape=mxgraph.flowchart.decision;whiteSpace=wrap;" vertex="1" parent="1">
                    <mxGeometry x="205" y="280" width="170" height="170" as="geometry"/>
                </mxCell>
                <mxCell id="15" value="" style="edgeStyle=none;html=1;" edge="1" parent="1" source="10" target="9">
                    <mxGeometry relative="1" as="geometry"/>
                </mxCell>
                <mxCell id="10" value="Initialize RTC and RFID modules" style="rounded=1;whiteSpace=wrap;html=1;absoluteArcSize=1;arcSize=0;strokeWidth=2;" vertex="1" parent="1">
                    <mxGeometry x="220" y="170" width="140" height="70" as="geometry"/>
                </mxCell>
                <mxCell id="27" value="No" style="text;html=1;align=center;verticalAlign=middle;resizable=0;points=[];autosize=1;strokeColor=none;fillColor=none;fontSize=14;" vertex="1" parent="1">
                    <mxGeometry x="290" y="460" width="40" height="30" as="geometry"/>
                </mxCell>
                <mxCell id="34" value="" style="edgeStyle=none;html=1;fontSize=14;" edge="1" parent="1" source="28" target="33">
                    <mxGeometry relative="1" as="geometry"/>
                </mxCell>
                <mxCell id="28" value="Exit Low Power Mode&amp;nbsp;" style="rounded=1;whiteSpace=wrap;html=1;absoluteArcSize=1;arcSize=14;strokeWidth=2;fontSize=14;" vertex="1" parent="1">
                    <mxGeometry x="510" y="100" width="190" height="100" as="geometry"/>
                </mxCell>
                <mxCell id="32" style="edgeStyle=none;html=1;entryX=0;entryY=0.5;entryDx=0;entryDy=0;entryPerimeter=0;fontSize=14;exitX=0;exitY=0.5;exitDx=0;exitDy=0;" edge="1" parent="1" source="30" target="9">
                    <mxGeometry relative="1" as="geometry">
                        <Array as="points">
                            <mxPoint x="160" y="560"/>
                            <mxPoint x="160" y="365"/>
                        </Array>
                    </mxGeometry>
                </mxCell>
                <mxCell id="30" value="Low power mode" style="rounded=1;whiteSpace=wrap;html=1;absoluteArcSize=1;arcSize=14;strokeWidth=2;fontSize=14;" vertex="1" parent="1">
                    <mxGeometry x="250" y="520" width="80" height="80" as="geometry"/>
                </mxCell>
                <mxCell id="36" value="" style="edgeStyle=none;html=1;fontSize=14;" edge="1" parent="1" source="33" target="35">
                    <mxGeometry relative="1" as="geometry"/>
                </mxCell>
                <mxCell id="56" style="edgeStyle=none;html=1;exitX=1;exitY=0.5;exitDx=0;exitDy=0;entryX=0;entryY=0.5;entryDx=0;entryDy=0;fontSize=13;" edge="1" parent="1" source="33" target="55">
                    <mxGeometry relative="1" as="geometry"/>
                </mxCell>
                <mxCell id="33" value="Read RFID&amp;nbsp;" style="rounded=1;whiteSpace=wrap;html=1;absoluteArcSize=1;arcSize=14;strokeWidth=2;fontSize=14;" vertex="1" parent="1">
                    <mxGeometry x="555" y="230" width="100" height="40" as="geometry"/>
                </mxCell>
                <mxCell id="41" value="" style="edgeStyle=none;html=1;fontSize=14;" edge="1" parent="1" source="35" target="37">
                    <mxGeometry relative="1" as="geometry"/>
                </mxCell>
                <mxCell id="45" style="edgeStyle=none;html=1;exitX=0.5;exitY=1;exitDx=0;exitDy=0;exitPerimeter=0;fontSize=14;" edge="1" parent="1" source="35">
                    <mxGeometry relative="1" as="geometry">
                        <mxPoint x="690" y="460" as="targetPoint"/>
                        <Array as="points">
                            <mxPoint x="605" y="410"/>
                            <mxPoint x="690" y="410"/>
                        </Array>
                    </mxGeometry>
                </mxCell>
                <mxCell id="35" value="Known Tag?" style="strokeWidth=2;html=1;shape=mxgraph.flowchart.decision;whiteSpace=wrap;fontSize=14;" vertex="1" parent="1">
                    <mxGeometry x="555" y="300" width="100" height="100" as="geometry"/>
                </mxCell>
                <mxCell id="43" style="edgeStyle=none;html=1;exitX=0.5;exitY=1;exitDx=0;exitDy=0;entryX=0.5;entryY=0;entryDx=0;entryDy=0;fontSize=14;" edge="1" parent="1" source="37" target="42">
                    <mxGeometry relative="1" as="geometry">
                        <Array as="points">
                            <mxPoint x="750" y="410"/>
                            <mxPoint x="690" y="410"/>
                        </Array>
                    </mxGeometry>
                </mxCell>
                <mxCell id="37" value="Register new tag in system" style="rounded=1;whiteSpace=wrap;html=1;absoluteArcSize=1;arcSize=14;strokeWidth=2;fontSize=14;" vertex="1" parent="1">
                    <mxGeometry x="690" y="320" width="120" height="60" as="geometry"/>
                </mxCell>
                <mxCell id="39" value="Yes" style="text;html=1;align=center;verticalAlign=middle;resizable=0;points=[];autosize=1;strokeColor=none;fillColor=none;fontSize=14;" vertex="1" parent="1">
                    <mxGeometry x="375" y="335" width="50" height="30" as="geometry"/>
                </mxCell>
                <mxCell id="50" value="" style="edgeStyle=none;html=1;fontSize=14;" edge="1" parent="1" source="42" target="49">
                    <mxGeometry relative="1" as="geometry"/>
                </mxCell>
                <mxCell id="42" value="Access RTC for current timestamp" style="rounded=1;whiteSpace=wrap;html=1;absoluteArcSize=1;arcSize=14;strokeWidth=2;fontSize=14;" vertex="1" parent="1">
                    <mxGeometry x="610" y="460" width="160" height="90" as="geometry"/>
                </mxCell>
                <mxCell id="46" value="Yes" style="text;html=1;align=center;verticalAlign=middle;resizable=0;points=[];autosize=1;strokeColor=none;fillColor=none;fontSize=14;" vertex="1" parent="1">
                    <mxGeometry x="550" y="400" width="50" height="30" as="geometry"/>
                </mxCell>
                <mxCell id="47" value="No" style="text;html=1;align=center;verticalAlign=middle;resizable=0;points=[];autosize=1;strokeColor=none;fillColor=none;fontSize=14;" vertex="1" parent="1">
                    <mxGeometry x="650" y="315" width="40" height="30" as="geometry"/>
                </mxCell>
                <mxCell id="68" style="edgeStyle=none;html=1;exitX=0.5;exitY=1;exitDx=0;exitDy=0;exitPerimeter=0;entryX=0.5;entryY=0;entryDx=0;entryDy=0;entryPerimeter=0;fontSize=13;" edge="1" parent="1" source="49" target="67">
                    <mxGeometry relative="1" as="geometry">
                        <Array as="points">
                            <mxPoint x="690" y="700"/>
                        </Array>
                    </mxGeometry>
                </mxCell>
                <mxCell id="49" value="&lt;font style=&quot;font-size: 13px;&quot;&gt;Store Timestamp with UID in memory&lt;/font&gt;" style="strokeWidth=2;html=1;shape=mxgraph.flowchart.stored_data;whiteSpace=wrap;fontSize=14;align=center;" vertex="1" parent="1">
                    <mxGeometry x="582.5" y="580" width="215" height="70" as="geometry"/>
                </mxCell>
                <mxCell id="62" style="edgeStyle=none;html=1;exitX=0.5;exitY=1;exitDx=0;exitDy=0;fontSize=13;entryX=0.5;entryY=0;entryDx=0;entryDy=0;" edge="1" parent="1" source="55" target="57">
                    <mxGeometry relative="1" as="geometry">
                        <mxPoint x="990" y="470" as="targetPoint"/>
                        <Array as="points">
                            <mxPoint x="990" y="330"/>
                            <mxPoint x="1050" y="330"/>
                        </Array>
                    </mxGeometry>
                </mxCell>
                <mxCell id="63" style="edgeStyle=none;html=1;exitX=0.5;exitY=1;exitDx=0;exitDy=0;entryX=0.5;entryY=0;entryDx=0;entryDy=0;fontSize=13;" edge="1" parent="1" source="55" target="58">
                    <mxGeometry relative="1" as="geometry">
                        <Array as="points">
                            <mxPoint x="990" y="330"/>
                            <mxPoint x="930" y="330"/>
                        </Array>
                    </mxGeometry>
                </mxCell>
                <mxCell id="55" value="Output Scan confirmation" style="rounded=1;whiteSpace=wrap;html=1;absoluteArcSize=1;arcSize=14;strokeWidth=2;fontSize=13;" vertex="1" parent="1">
                    <mxGeometry x="940" y="200" width="100" height="100" as="geometry"/>
                </mxCell>
                <mxCell id="65" style="edgeStyle=none;html=1;exitX=0.5;exitY=1;exitDx=0;exitDy=0;entryX=0.5;entryY=0;entryDx=0;entryDy=0;entryPerimeter=0;fontSize=13;" edge="1" parent="1" source="57" target="64">
                    <mxGeometry relative="1" as="geometry">
                        <Array as="points">
                            <mxPoint x="1050" y="440"/>
                            <mxPoint x="990" y="440"/>
                        </Array>
                    </mxGeometry>
                </mxCell>
                <mxCell id="57" value="Toggle Red and Green LED" style="rounded=1;whiteSpace=wrap;html=1;absoluteArcSize=1;arcSize=14;strokeWidth=2;fontSize=13;" vertex="1" parent="1">
                    <mxGeometry x="1000" y="360" width="100" height="55" as="geometry"/>
                </mxCell>
                <mxCell id="66" style="edgeStyle=none;html=1;exitX=0.5;exitY=1;exitDx=0;exitDy=0;fontSize=13;" edge="1" parent="1" source="58">
                    <mxGeometry relative="1" as="geometry">
                        <mxPoint x="990" y="460" as="targetPoint"/>
                        <Array as="points">
                            <mxPoint x="930" y="440"/>
                            <mxPoint x="990" y="440"/>
                        </Array>
                    </mxGeometry>
                </mxCell>
                <mxCell id="58" value="Send Chirp to speaker" style="rounded=1;whiteSpace=wrap;html=1;absoluteArcSize=1;arcSize=14;strokeWidth=2;fontSize=13;" vertex="1" parent="1">
                    <mxGeometry x="880" y="360" width="100" height="55" as="geometry"/>
                </mxCell>
                <mxCell id="69" style="edgeStyle=none;html=1;fontSize=13;entryX=0.5;entryY=0;entryDx=0;entryDy=0;entryPerimeter=0;exitX=0.5;exitY=1;exitDx=0;exitDy=0;" edge="1" parent="1" source="70" target="67">
                    <mxGeometry relative="1" as="geometry">
                        <mxPoint x="830" y="730" as="targetPoint"/>
                        <mxPoint x="990" y="650" as="sourcePoint"/>
                        <Array as="points">
                            <mxPoint x="990" y="700"/>
                            <mxPoint x="835" y="700"/>
                            <mxPoint x="690" y="700"/>
                        </Array>
                    </mxGeometry>
                </mxCell>
                <mxCell id="71" value="" style="edgeStyle=none;html=1;fontSize=13;" edge="1" parent="1" source="64" target="70">
                    <mxGeometry relative="1" as="geometry"/>
                </mxCell>
                <mxCell id="64" value="Short Delay" style="strokeWidth=2;html=1;shape=mxgraph.flowchart.delay;whiteSpace=wrap;fontSize=13;" vertex="1" parent="1">
                    <mxGeometry x="940" y="460" width="100" height="60" as="geometry"/>
                </mxCell>
                <mxCell id="74" value="" style="edgeStyle=none;html=1;fontSize=14;" edge="1" parent="1" source="67" target="73">
                    <mxGeometry relative="1" as="geometry"/>
                </mxCell>
                <mxCell id="85" style="edgeStyle=none;html=1;exitX=0.5;exitY=1;exitDx=0;exitDy=0;exitPerimeter=0;entryX=0.5;entryY=0;entryDx=0;entryDy=0;fontSize=13;" edge="1" parent="1" source="67" target="84">
                    <mxGeometry relative="1" as="geometry"/>
                </mxCell>
                <mxCell id="67" value="Clock-in or Clock-out?" style="strokeWidth=2;html=1;shape=mxgraph.flowchart.decision;whiteSpace=wrap;fontSize=13;" vertex="1" parent="1">
                    <mxGeometry x="605" y="730" width="170" height="170" as="geometry"/>
                </mxCell>
                <mxCell id="70" value="Toggle Red and Green LED" style="rounded=1;whiteSpace=wrap;html=1;absoluteArcSize=1;arcSize=14;strokeWidth=2;fontSize=13;" vertex="1" parent="1">
                    <mxGeometry x="940" y="560" width="100" height="55" as="geometry"/>
                </mxCell>
                <mxCell id="77" value="" style="edgeStyle=none;html=1;fontSize=14;" edge="1" parent="1" source="73" target="76">
                    <mxGeometry relative="1" as="geometry"/>
                </mxCell>
                <mxCell id="73" value="Pull UID accumulated time" style="rounded=1;whiteSpace=wrap;html=1;absoluteArcSize=1;arcSize=14;strokeWidth=2;fontSize=14;" vertex="1" parent="1">
                    <mxGeometry x="420" y="782.5" width="100" height="65" as="geometry"/>
                </mxCell>
                <mxCell id="75" value="Clock-Out" style="text;html=1;align=center;verticalAlign=middle;resizable=0;points=[];autosize=1;strokeColor=none;fillColor=none;fontSize=14;" vertex="1" parent="1">
                    <mxGeometry x="515" y="785" width="90" height="30" as="geometry"/>
                </mxCell>
                <mxCell id="79" value="" style="edgeStyle=none;html=1;fontSize=14;" edge="1" parent="1" source="76" target="78">
                    <mxGeometry relative="1" as="geometry"/>
                </mxCell>
                <mxCell id="76" value="Check last timestamp registered with UID" style="rounded=1;whiteSpace=wrap;html=1;absoluteArcSize=1;arcSize=14;strokeWidth=2;fontSize=14;" vertex="1" parent="1">
                    <mxGeometry x="260" y="777.5" width="100" height="75" as="geometry"/>
                </mxCell>
                <mxCell id="81" value="" style="edgeStyle=none;html=1;fontSize=14;" edge="1" parent="1" source="78" target="80">
                    <mxGeometry relative="1" as="geometry"/>
                </mxCell>
                <mxCell id="78" value="Calculate new accumlated time" style="rounded=1;whiteSpace=wrap;html=1;absoluteArcSize=1;arcSize=14;strokeWidth=2;fontSize=14;" vertex="1" parent="1">
                    <mxGeometry x="260" y="907.5" width="100" height="70" as="geometry"/>
                </mxCell>
                <mxCell id="86" style="edgeStyle=none;html=1;exitX=0.93;exitY=0.5;exitDx=0;exitDy=0;exitPerimeter=0;entryX=0.5;entryY=0;entryDx=0;entryDy=0;fontSize=13;" edge="1" parent="1" source="80" target="84">
                    <mxGeometry relative="1" as="geometry">
                        <Array as="points">
                            <mxPoint x="690" y="943"/>
                        </Array>
                    </mxGeometry>
                </mxCell>
                <mxCell id="80" value="&lt;font style=&quot;font-size: 13px;&quot;&gt;Store new time for UID&lt;/font&gt;" style="strokeWidth=2;html=1;shape=mxgraph.flowchart.stored_data;whiteSpace=wrap;fontSize=14;" vertex="1" parent="1">
                    <mxGeometry x="402.5" y="920" width="180" height="45" as="geometry"/>
                </mxCell>
                <mxCell id="87" style="edgeStyle=none;html=1;exitX=0.5;exitY=1;exitDx=0;exitDy=0;entryX=0.5;entryY=1;entryDx=0;entryDy=0;fontSize=13;" edge="1" parent="1" source="84" target="30">
                    <mxGeometry relative="1" as="geometry">
                        <Array as="points">
                            <mxPoint x="690" y="1200"/>
                            <mxPoint x="200" y="1200"/>
                            <mxPoint x="200" y="720"/>
                            <mxPoint x="290" y="720"/>
                        </Array>
                    </mxGeometry>
                </mxCell>
                <mxCell id="84" value="Output Time data to LCD for user. Session Time and Total Time" style="rounded=1;whiteSpace=wrap;html=1;absoluteArcSize=1;arcSize=14;strokeWidth=2;fontSize=13;" vertex="1" parent="1">
                    <mxGeometry x="535" y="1020" width="310" height="100" as="geometry"/>
                </mxCell>
                <mxCell id="88" value="Clock-In" style="text;html=1;align=center;verticalAlign=middle;resizable=0;points=[];autosize=1;strokeColor=none;fillColor=none;fontSize=13;" vertex="1" parent="1">
                    <mxGeometry x="685" y="907.5" width="70" height="30" as="geometry"/>
                </mxCell>
            </root>
        </mxGraphModel>
    </diagram>
</mxfile>